<svg id="svg" xmlns="http://www.w3.org/2000/svg" xmlns:xlink="http://www.w3.org/1999/xlink" width="400" height="400" viewBox="0, 0, 400,400"><g id="svgg"><path id="path0" d="M197.778 23.291 C 197.778 23.471,196.861 23.733,195.741 23.873 C 194.620 24.013,193.704 24.267,193.704 24.439 C 193.704 24.610,193.037 24.862,192.222 25.000 C 191.407 25.138,190.741 25.365,190.741 25.505 C 190.741 25.645,189.992 26.089,189.078 26.491 C 188.163 26.893,187.413 27.334,187.411 27.471 C 187.409 27.607,186.907 27.829,186.296 27.963 C 185.685 28.097,185.181 28.319,185.175 28.455 C 185.170 28.592,184.503 29.112,183.694 29.611 C 182.884 30.111,182.222 30.652,182.222 30.815 C 182.222 30.978,181.985 31.111,181.695 31.111 C 181.099 31.111,174.441 37.792,173.925 38.907 C 173.741 39.304,173.449 39.630,173.277 39.630 C 173.104 39.630,172.963 39.885,172.963 40.197 C 172.963 40.509,172.713 40.860,172.407 40.977 C 172.102 41.094,171.852 41.511,171.852 41.903 C 171.852 42.295,171.612 42.708,171.319 42.820 C 171.026 42.933,170.679 43.511,170.549 44.105 C 170.418 44.699,170.158 45.185,169.971 45.185 C 169.783 45.185,169.630 45.435,169.630 45.741 C 169.630 46.046,169.453 46.296,169.237 46.296 C 169.022 46.296,168.948 46.463,169.074 46.667 C 169.200 46.870,169.126 47.037,168.911 47.037 C 168.695 47.037,168.519 47.287,168.519 47.593 C 168.519 47.898,168.352 48.148,168.148 48.148 C 167.944 48.148,167.778 48.378,167.778 48.658 C 167.778 48.939,167.538 49.367,167.246 49.610 C 166.954 49.853,166.607 50.540,166.476 51.137 C 166.345 51.734,166.084 52.222,165.896 52.222 C 165.709 52.222,165.556 52.477,165.556 52.789 C 165.556 53.101,165.316 53.449,165.023 53.561 C 164.730 53.674,164.383 54.252,164.252 54.846 C 164.122 55.440,163.862 55.926,163.674 55.926 C 163.487 55.926,163.333 56.164,163.333 56.455 C 163.333 56.746,163.116 57.204,162.850 57.474 C 162.304 58.026,161.704 59.302,161.793 59.722 C 161.825 59.875,161.685 60.000,161.481 60.000 C 161.278 60.000,161.111 60.250,161.111 60.556 C 161.111 60.861,160.948 61.111,160.748 61.111 C 160.548 61.111,160.280 61.528,160.152 62.037 C 160.024 62.546,159.771 62.963,159.589 62.963 C 159.408 62.963,159.259 63.145,159.259 63.368 C 159.259 63.590,158.926 64.196,158.519 64.714 C 158.111 65.232,157.778 65.966,157.778 66.346 C 157.778 66.726,157.611 67.037,157.407 67.037 C 157.204 67.037,157.037 67.292,157.037 67.604 C 157.037 67.916,156.797 68.263,156.504 68.376 C 156.211 68.488,155.864 69.066,155.734 69.661 C 155.603 70.255,155.343 70.741,155.156 70.741 C 154.968 70.741,154.815 70.979,154.815 71.270 C 154.815 71.561,154.597 72.019,154.331 72.288 C 153.786 72.840,153.186 74.117,153.275 74.537 C 153.307 74.690,153.167 74.815,152.963 74.815 C 152.759 74.815,152.593 75.075,152.593 75.392 C 152.593 75.710,152.439 75.875,152.252 75.759 C 152.065 75.644,151.802 76.051,151.667 76.663 C 151.533 77.276,151.269 77.778,151.082 77.778 C 150.894 77.778,150.741 78.033,150.741 78.345 C 150.741 78.657,150.501 79.004,150.208 79.117 C 149.915 79.229,149.568 79.807,149.438 80.401 C 149.307 80.995,149.065 81.481,148.900 81.481 C 148.734 81.481,148.494 81.898,148.366 82.407 C 148.239 82.917,147.984 83.333,147.800 83.333 C 147.617 83.333,147.356 83.833,147.222 84.444 C 147.088 85.056,146.843 85.556,146.677 85.556 C 146.512 85.556,146.272 85.972,146.144 86.481 C 146.016 86.991,145.748 87.407,145.548 87.407 C 145.349 87.407,145.185 87.600,145.185 87.835 C 145.185 88.071,144.777 88.798,144.279 89.451 C 143.781 90.105,143.263 91.079,143.128 91.616 C 142.993 92.153,142.734 92.593,142.552 92.593 C 142.371 92.593,142.222 92.848,142.222 93.160 C 142.222 93.472,141.982 93.819,141.689 93.931 C 141.396 94.044,141.050 94.622,140.919 95.216 C 140.789 95.810,140.547 96.296,140.381 96.296 C 140.216 96.296,139.976 96.713,139.848 97.222 C 139.720 97.731,139.465 98.148,139.282 98.148 C 139.098 98.148,138.838 98.648,138.704 99.259 C 138.569 99.870,138.324 100.370,138.159 100.370 C 137.993 100.370,137.754 100.787,137.626 101.296 C 137.498 101.806,137.230 102.222,137.030 102.222 C 136.830 102.222,136.667 102.472,136.667 102.778 C 136.667 103.083,136.519 103.333,136.339 103.333 C 136.160 103.333,135.904 103.625,135.771 103.981 C 135.639 104.338,134.954 105.630,134.251 106.852 C 133.547 108.074,132.766 109.532,132.515 110.093 C 132.265 110.653,131.948 111.111,131.811 111.111 C 131.674 111.111,131.457 111.528,131.329 112.037 C 131.202 112.546,130.947 112.963,130.763 112.963 C 130.579 112.963,130.319 113.463,130.185 114.074 C 130.051 114.685,129.807 115.185,129.643 115.185 C 129.480 115.185,129.248 115.477,129.128 115.833 C 128.917 116.463,128.152 117.774,127.778 118.148 C 127.482 118.444,126.700 119.736,126.209 120.741 C 125.960 121.250,125.669 121.750,125.563 121.852 C 125.457 121.954,124.954 122.870,124.444 123.889 C 123.935 124.907,123.416 125.824,123.291 125.926 C 123.165 126.028,122.946 126.486,122.803 126.944 C 122.660 127.403,122.400 127.778,122.227 127.778 C 122.053 127.778,121.801 128.278,121.667 128.889 C 121.532 129.500,121.269 130.000,121.082 130.000 C 120.894 130.000,120.741 130.255,120.741 130.567 C 120.741 130.879,120.491 131.230,120.185 131.348 C 119.880 131.465,119.630 131.876,119.630 132.262 C 119.630 132.647,119.463 132.963,119.259 132.963 C 119.056 132.963,118.889 133.187,118.889 133.462 C 118.889 133.736,118.556 134.345,118.148 134.815 C 117.741 135.285,117.407 135.893,117.407 136.168 C 117.407 136.442,117.282 136.670,117.130 136.674 C 116.977 136.679,116.435 137.592,115.926 138.704 C 115.417 139.816,114.893 140.729,114.762 140.733 C 114.632 140.737,114.420 141.157,114.292 141.667 C 114.165 142.176,113.910 142.593,113.726 142.593 C 113.542 142.593,113.282 143.093,113.148 143.704 C 113.014 144.315,112.751 144.815,112.563 144.815 C 112.376 144.815,112.222 145.057,112.222 145.352 C 112.222 145.647,112.012 146.022,111.756 146.185 C 111.499 146.348,110.957 147.146,110.552 147.957 C 110.146 148.769,109.606 149.656,109.352 149.928 C 109.097 150.200,108.889 150.661,108.889 150.952 C 108.889 151.243,108.764 151.485,108.611 151.489 C 108.458 151.493,107.917 152.407,107.407 153.519 C 106.898 154.630,106.356 155.544,106.204 155.548 C 106.051 155.552,105.926 155.794,105.926 156.085 C 105.926 156.376,105.718 156.834,105.463 157.103 C 105.208 157.372,104.613 158.384,104.141 159.352 C 103.668 160.319,103.126 161.111,102.937 161.111 C 102.748 161.111,102.593 161.361,102.593 161.667 C 102.593 161.972,102.439 162.222,102.252 162.222 C 102.064 162.222,101.801 162.722,101.667 163.333 C 101.532 163.944,101.272 164.444,101.089 164.444 C 100.905 164.444,100.650 164.861,100.522 165.370 C 100.395 165.880,100.183 166.300,100.052 166.304 C 99.922 166.308,99.398 167.221,98.889 168.333 C 98.380 169.445,97.838 170.358,97.685 170.363 C 97.532 170.367,97.407 170.626,97.407 170.938 C 97.407 171.249,97.157 171.601,96.852 171.718 C 96.546 171.835,96.296 172.089,96.296 172.282 C 96.296 172.975,94.789 175.926,94.435 175.926 C 94.237 175.926,94.074 176.176,94.074 176.481 C 94.074 176.787,93.921 177.037,93.733 177.037 C 93.546 177.037,93.282 177.537,93.148 178.148 C 93.014 178.759,92.754 179.259,92.570 179.259 C 92.387 179.259,92.132 179.676,92.004 180.185 C 91.876 180.694,91.665 181.115,91.534 181.119 C 91.403 181.123,90.880 182.036,90.370 183.148 C 89.861 184.260,89.319 185.173,89.167 185.177 C 89.014 185.182,88.889 185.427,88.889 185.722 C 88.889 186.018,88.668 186.393,88.398 186.556 C 87.890 186.862,87.246 188.124,87.349 188.611 C 87.381 188.764,87.241 188.889,87.037 188.889 C 86.833 188.889,86.667 189.139,86.667 189.444 C 86.667 189.750,86.503 190.000,86.303 190.000 C 86.104 190.000,85.835 190.417,85.708 190.926 C 85.580 191.435,85.340 191.852,85.174 191.852 C 85.009 191.852,84.764 192.352,84.630 192.963 C 84.495 193.574,84.235 194.074,84.052 194.074 C 83.868 194.074,83.613 194.491,83.485 195.000 C 83.358 195.509,83.104 195.926,82.923 195.926 C 82.741 195.926,82.593 196.156,82.593 196.436 C 82.593 196.717,82.353 197.145,82.061 197.388 C 81.768 197.630,81.422 198.317,81.291 198.914 C 81.160 199.512,80.899 200.000,80.711 200.000 C 80.524 200.000,80.370 200.242,80.370 200.537 C 80.370 200.833,80.149 201.208,79.879 201.370 C 79.371 201.677,78.727 202.939,78.830 203.426 C 78.862 203.579,78.722 203.704,78.519 203.704 C 78.315 203.704,78.148 203.954,78.148 204.259 C 78.148 204.565,77.985 204.815,77.785 204.815 C 77.585 204.815,77.317 205.231,77.189 205.741 C 77.061 206.250,76.821 206.667,76.656 206.667 C 76.491 206.667,76.245 207.167,76.111 207.778 C 75.977 208.389,75.725 208.889,75.551 208.889 C 75.377 208.889,75.118 209.264,74.975 209.722 C 74.832 210.181,74.612 210.639,74.487 210.741 C 74.108 211.049,73.381 212.304,72.395 214.352 C 71.881 215.421,71.298 216.296,71.100 216.296 C 70.903 216.296,70.741 216.546,70.741 216.852 C 70.741 217.157,70.556 217.407,70.331 217.407 C 70.105 217.407,70.017 217.657,70.134 217.963 C 70.251 218.269,70.186 218.519,69.988 218.519 C 69.791 218.519,69.630 218.769,69.630 219.074 C 69.630 219.380,69.474 219.630,69.284 219.630 C 69.094 219.630,68.822 220.005,68.679 220.463 C 68.536 220.921,68.316 221.380,68.191 221.481 C 68.065 221.583,67.546 222.500,67.037 223.519 C 66.528 224.537,66.028 225.454,65.926 225.556 C 65.550 225.931,64.775 227.251,64.350 228.241 C 64.109 228.801,63.782 229.259,63.623 229.259 C 63.463 229.259,63.333 229.509,63.333 229.815 C 63.333 230.120,63.157 230.370,62.941 230.370 C 62.725 230.370,62.652 230.537,62.778 230.741 C 62.904 230.944,62.830 231.111,62.614 231.111 C 62.399 231.111,62.222 231.361,62.222 231.667 C 62.222 231.972,62.038 232.222,61.812 232.222 C 61.587 232.222,61.498 232.472,61.615 232.778 C 61.733 233.083,61.667 233.333,61.470 233.333 C 61.273 233.333,61.111 233.583,61.111 233.889 C 61.111 234.194,60.948 234.444,60.748 234.444 C 60.548 234.444,60.280 234.861,60.152 235.370 C 60.024 235.880,59.813 236.299,59.682 236.302 C 59.551 236.305,59.028 237.180,58.519 238.246 C 58.009 239.313,57.509 240.269,57.407 240.370 C 57.032 240.746,56.257 242.066,55.831 243.056 C 55.590 243.616,55.263 244.074,55.104 244.074 C 54.945 244.074,54.815 244.324,54.815 244.630 C 54.815 244.935,54.638 245.185,54.423 245.185 C 54.207 245.185,54.118 245.327,54.225 245.499 C 54.331 245.672,54.098 246.158,53.706 246.579 C 53.314 247.000,52.885 247.775,52.753 248.302 C 52.620 248.828,52.375 249.259,52.207 249.259 C 52.039 249.259,51.785 249.634,51.642 250.093 C 51.499 250.551,51.279 251.009,51.154 251.111 C 50.796 251.402,49.606 253.450,49.378 254.167 C 49.265 254.523,49.026 254.815,48.846 254.815 C 48.666 254.815,48.519 255.076,48.519 255.395 C 48.519 255.714,48.103 256.521,47.594 257.187 C 47.086 257.853,46.781 258.509,46.915 258.644 C 47.050 258.779,46.966 258.889,46.728 258.889 C 46.491 258.889,46.296 259.139,46.296 259.444 C 46.296 259.750,46.148 260.000,45.966 260.000 C 45.784 260.000,45.531 260.417,45.403 260.926 C 45.276 261.435,45.021 261.852,44.837 261.852 C 44.654 261.852,44.393 262.352,44.259 262.963 C 44.125 263.574,43.873 264.074,43.699 264.074 C 43.525 264.074,43.266 264.449,43.123 264.907 C 42.980 265.366,42.761 265.824,42.635 265.926 C 42.277 266.217,41.087 268.265,40.860 268.981 C 40.747 269.338,40.507 269.630,40.327 269.630 C 40.147 269.630,40.000 269.841,40.000 270.099 C 40.000 270.357,39.591 271.171,39.091 271.906 C 38.591 272.642,38.286 273.347,38.412 273.474 C 38.539 273.600,38.448 273.704,38.210 273.704 C 37.972 273.704,37.778 273.954,37.778 274.259 C 37.778 274.565,37.629 274.815,37.448 274.815 C 37.266 274.815,37.013 275.231,36.885 275.741 C 36.757 276.250,36.502 276.667,36.319 276.667 C 36.135 276.667,35.878 277.153,35.748 277.747 C 35.617 278.341,35.270 278.919,34.977 279.032 C 34.684 279.144,34.444 279.575,34.444 279.988 C 34.444 280.402,34.314 280.741,34.155 280.741 C 33.996 280.741,33.656 281.199,33.400 281.759 C 32.540 283.637,32.049 284.444,31.764 284.444 C 31.609 284.444,31.481 284.656,31.481 284.914 C 31.481 285.172,31.072 285.986,30.573 286.721 C 30.073 287.457,29.767 288.162,29.894 288.289 C 30.020 288.415,29.929 288.519,29.691 288.519 C 29.454 288.519,29.259 288.769,29.259 289.074 C 29.259 289.380,29.111 289.630,28.929 289.630 C 28.747 289.630,28.494 290.046,28.366 290.556 C 28.239 291.065,27.984 291.481,27.800 291.481 C 27.617 291.481,27.360 291.968,27.229 292.562 C 27.099 293.156,26.752 293.734,26.459 293.846 C 26.166 293.959,25.926 294.306,25.926 294.618 C 25.926 294.930,25.767 295.185,25.572 295.185 C 25.378 295.185,25.109 295.769,24.976 296.481 C 24.842 297.194,24.592 297.778,24.420 297.778 C 24.248 297.778,23.998 298.361,23.864 299.074 C 23.731 299.787,23.473 300.370,23.292 300.370 C 23.111 300.370,22.962 300.745,22.961 301.204 C 22.959 301.662,22.709 302.514,22.405 303.098 C 22.101 303.681,21.852 304.556,21.852 305.042 C 21.852 305.528,21.685 305.926,21.481 305.926 C 21.244 305.926,21.111 309.390,21.111 315.577 C 21.111 321.135,21.251 325.142,21.441 325.025 C 21.623 324.913,21.864 325.361,21.976 326.021 C 22.337 328.137,23.123 330.741,23.401 330.741 C 23.549 330.741,23.780 331.324,23.913 332.037 C 24.047 332.750,24.287 333.333,24.446 333.333 C 24.604 333.333,24.844 333.770,24.978 334.304 C 25.112 334.838,25.464 335.516,25.759 335.812 C 26.055 336.107,26.294 336.546,26.291 336.786 C 26.287 337.071,26.175 337.048,25.967 336.720 C 25.767 336.405,25.561 336.358,25.416 336.593 C 25.288 336.800,25.684 337.391,26.295 337.905 C 26.907 338.420,27.407 339.096,27.407 339.408 C 27.407 339.719,27.729 340.146,28.123 340.357 C 28.517 340.568,28.953 341.099,29.092 341.539 C 29.393 342.485,31.021 344.074,31.690 344.074 C 31.949 344.074,32.216 344.220,32.284 344.397 C 32.447 344.825,36.629 347.037,37.274 347.037 C 37.551 347.037,37.778 347.204,37.778 347.407 C 37.778 347.631,39.321 347.778,41.667 347.778 C 44.012 347.778,45.556 347.631,45.556 347.407 C 45.556 347.204,45.949 347.037,46.429 347.037 C 47.451 347.037,51.531 344.955,51.963 344.212 C 52.126 343.933,52.584 343.704,52.981 343.704 C 53.379 343.704,53.704 343.454,53.704 343.148 C 53.704 342.843,54.037 342.259,54.444 341.852 C 54.852 341.444,55.185 341.006,55.185 340.877 C 55.185 340.748,55.534 340.340,55.960 339.971 C 56.386 339.601,56.626 339.123,56.494 338.909 C 56.361 338.694,56.429 338.519,56.645 338.519 C 56.861 338.519,57.037 338.269,57.037 337.963 C 57.037 337.657,57.222 337.407,57.447 337.407 C 57.673 337.407,57.771 337.183,57.666 336.909 C 57.561 336.635,57.787 336.186,58.168 335.911 C 58.550 335.637,58.967 334.933,59.095 334.347 C 59.224 333.762,59.563 333.193,59.850 333.083 C 60.136 332.974,60.370 332.652,60.370 332.368 C 60.370 332.084,60.518 331.852,60.700 331.852 C 60.881 331.852,61.140 331.260,61.276 330.536 C 61.411 329.812,61.763 329.128,62.057 329.015 C 62.352 328.902,62.593 328.577,62.593 328.294 C 62.593 328.010,62.740 327.778,62.920 327.778 C 63.196 327.778,63.619 326.787,63.647 326.075 C 63.651 325.962,64.015 325.558,64.454 325.177 C 64.894 324.796,65.145 324.308,65.012 324.094 C 64.880 323.879,64.928 323.704,65.120 323.704 C 65.312 323.704,65.567 323.412,65.687 323.056 C 65.933 322.323,66.726 321.021,67.100 320.737 C 67.237 320.633,67.467 320.078,67.611 319.503 C 67.755 318.929,68.102 318.371,68.381 318.264 C 68.660 318.157,68.889 317.837,68.889 317.553 C 68.889 317.269,69.029 317.037,69.201 317.037 C 69.372 317.037,69.712 316.370,69.956 315.556 C 70.200 314.741,70.560 314.074,70.756 314.074 C 70.951 314.074,71.111 313.824,71.111 313.519 C 71.111 313.213,71.258 312.963,71.438 312.963 C 71.714 312.963,72.137 311.972,72.165 311.260 C 72.170 311.147,72.533 310.743,72.973 310.362 C 73.412 309.981,73.663 309.493,73.531 309.279 C 73.398 309.064,73.466 308.889,73.682 308.889 C 73.898 308.889,74.074 308.639,74.074 308.333 C 74.074 308.028,74.241 307.778,74.444 307.778 C 74.648 307.778,74.815 307.548,74.815 307.268 C 74.815 306.987,75.054 306.559,75.347 306.316 C 75.639 306.073,75.988 305.375,76.122 304.764 C 76.256 304.153,76.600 303.564,76.887 303.454 C 77.173 303.344,77.407 303.022,77.407 302.738 C 77.407 302.454,77.561 302.222,77.748 302.222 C 77.936 302.222,78.199 301.722,78.333 301.111 C 78.468 300.500,78.728 300.000,78.911 300.000 C 79.095 300.000,79.350 299.583,79.478 299.074 C 79.605 298.565,79.839 298.148,79.997 298.148 C 80.249 298.148,80.732 297.062,80.876 296.174 C 80.904 296.005,81.234 295.641,81.611 295.365 C 81.988 295.090,82.187 294.686,82.052 294.469 C 81.918 294.252,81.985 294.074,82.200 294.074 C 82.416 294.074,82.593 293.824,82.593 293.519 C 82.593 293.213,82.759 292.963,82.963 292.963 C 83.167 292.963,83.333 292.708,83.333 292.396 C 83.333 292.084,83.579 291.734,83.879 291.619 C 84.179 291.504,84.531 290.843,84.661 290.149 C 84.791 289.456,85.045 288.889,85.226 288.889 C 85.407 288.889,85.556 288.634,85.556 288.322 C 85.556 288.010,85.795 287.663,86.088 287.550 C 86.382 287.438,86.726 286.871,86.853 286.291 C 86.980 285.711,87.324 285.038,87.616 284.795 C 87.909 284.552,88.148 284.124,88.148 283.844 C 88.148 283.563,88.315 283.333,88.519 283.333 C 88.722 283.333,88.889 283.083,88.889 282.778 C 88.889 282.472,89.073 282.222,89.299 282.222 C 89.524 282.222,89.623 281.998,89.518 281.724 C 89.413 281.450,89.639 281.001,90.020 280.726 C 90.401 280.451,90.816 279.759,90.942 279.187 C 91.067 278.616,91.323 278.148,91.511 278.148 C 91.698 278.148,91.852 277.893,91.852 277.581 C 91.852 277.269,92.092 276.922,92.385 276.809 C 92.678 276.697,93.024 276.119,93.155 275.525 C 93.285 274.931,93.528 274.444,93.693 274.444 C 93.858 274.444,94.098 274.028,94.226 273.519 C 94.354 273.009,94.609 272.593,94.792 272.593 C 94.976 272.593,95.238 272.085,95.374 271.464 C 95.511 270.843,95.924 270.147,96.293 269.916 C 96.661 269.686,96.879 269.277,96.775 269.008 C 96.672 268.739,96.772 268.519,96.997 268.519 C 97.223 268.519,97.407 268.269,97.407 267.963 C 97.407 267.657,97.592 267.407,97.817 267.407 C 98.043 267.407,98.143 267.187,98.040 266.918 C 97.936 266.649,98.153 266.240,98.522 266.010 C 98.891 265.779,99.304 265.083,99.441 264.462 C 99.577 263.841,99.842 263.333,100.029 263.333 C 100.217 263.333,100.370 263.078,100.370 262.766 C 100.370 262.454,100.610 262.107,100.903 261.994 C 101.196 261.882,101.543 261.304,101.673 260.710 C 101.804 260.116,102.046 259.630,102.211 259.630 C 102.377 259.630,102.617 259.213,102.745 258.704 C 102.872 258.194,103.127 257.778,103.311 257.778 C 103.495 257.778,103.755 257.278,103.889 256.667 C 104.023 256.056,104.268 255.556,104.434 255.556 C 104.599 255.556,104.839 255.139,104.967 254.630 C 105.095 254.120,105.363 253.704,105.563 253.704 C 105.762 253.704,105.926 253.454,105.926 253.148 C 105.926 252.843,106.110 252.593,106.336 252.593 C 106.561 252.593,106.653 252.351,106.540 252.056 C 106.414 251.728,106.625 251.427,107.083 251.282 C 107.529 251.140,107.751 250.834,107.631 250.522 C 107.521 250.235,107.553 250.000,107.702 250.000 C 107.851 250.000,108.262 249.333,108.615 248.519 C 108.968 247.704,109.411 247.037,109.599 247.037 C 109.787 247.037,110.051 246.537,110.185 245.926 C 110.319 245.315,110.583 244.815,110.770 244.815 C 110.958 244.815,111.111 244.577,111.111 244.286 C 111.111 243.995,111.339 243.529,111.618 243.250 C 111.896 242.971,112.252 242.334,112.408 241.835 C 112.565 241.335,112.795 240.843,112.920 240.741 C 113.286 240.443,114.077 239.129,114.313 238.426 C 114.433 238.069,114.665 237.778,114.829 237.778 C 114.992 237.778,115.239 237.267,115.376 236.642 C 115.513 236.017,115.860 235.416,116.146 235.306 C 116.432 235.196,116.667 234.874,116.667 234.590 C 116.667 234.306,116.815 234.074,116.997 234.074 C 117.179 234.074,117.432 233.657,117.559 233.148 C 117.687 232.639,117.942 232.222,118.126 232.222 C 118.309 232.222,118.569 231.722,118.704 231.111 C 118.838 230.500,119.083 230.000,119.249 230.000 C 119.414 230.000,119.654 229.583,119.782 229.074 C 119.910 228.565,120.164 228.148,120.348 228.148 C 120.532 228.148,120.792 227.648,120.926 227.037 C 121.060 226.426,121.323 225.926,121.511 225.926 C 121.698 225.926,121.852 225.671,121.852 225.359 C 121.852 225.047,122.102 224.696,122.407 224.578 C 122.713 224.461,122.963 224.050,122.963 223.664 C 122.963 223.278,123.116 222.963,123.304 222.963 C 123.491 222.963,123.757 222.452,123.894 221.827 C 124.032 221.202,124.378 220.601,124.665 220.491 C 124.951 220.381,125.185 220.059,125.185 219.775 C 125.185 219.491,125.334 219.259,125.515 219.259 C 125.697 219.259,125.950 218.843,126.078 218.333 C 126.206 217.824,126.461 217.407,126.644 217.407 C 126.828 217.407,127.088 216.907,127.222 216.296 C 127.356 215.685,127.602 215.185,127.767 215.185 C 127.932 215.185,128.172 214.769,128.300 214.259 C 128.428 213.750,128.683 213.333,128.867 213.333 C 129.050 213.333,129.310 212.833,129.444 212.222 C 129.579 211.611,129.842 211.111,130.029 211.111 C 130.217 211.111,130.370 210.869,130.370 210.574 C 130.370 210.279,130.579 209.904,130.834 209.741 C 131.324 209.428,131.964 208.264,132.576 206.574 C 132.779 206.014,133.115 205.556,133.324 205.556 C 133.533 205.556,133.704 205.306,133.704 205.000 C 133.704 204.694,133.857 204.444,134.045 204.444 C 134.232 204.444,134.493 203.956,134.624 203.359 C 134.755 202.762,135.102 202.075,135.394 201.832 C 135.687 201.589,135.926 201.161,135.926 200.881 C 135.926 200.600,136.053 200.370,136.208 200.370 C 136.491 200.370,137.160 199.273,137.620 198.056 C 137.754 197.699,138.006 197.407,138.180 197.407 C 138.353 197.407,138.399 197.157,138.282 196.852 C 138.165 196.546,138.253 196.296,138.479 196.296 C 138.704 196.296,138.889 196.041,138.889 195.729 C 138.889 195.417,139.139 195.066,139.444 194.949 C 139.750 194.831,140.000 194.503,140.000 194.220 C 140.000 193.936,140.140 193.704,140.312 193.704 C 140.483 193.704,140.823 193.037,141.067 192.222 C 141.311 191.407,141.671 190.741,141.867 190.741 C 142.062 190.741,142.222 190.491,142.222 190.185 C 142.222 189.880,142.376 189.630,142.563 189.630 C 142.751 189.630,143.011 189.141,143.143 188.544 C 143.274 187.947,143.620 187.260,143.913 187.017 C 144.205 186.775,144.444 186.346,144.444 186.066 C 144.444 185.785,144.598 185.556,144.785 185.556 C 144.973 185.556,145.236 185.054,145.371 184.441 C 145.506 183.829,145.934 183.157,146.323 182.949 C 146.712 182.741,147.004 182.450,146.974 182.304 C 146.864 181.783,147.766 180.000,148.139 180.000 C 148.348 180.000,148.519 179.750,148.519 179.444 C 148.519 179.139,148.659 178.889,148.830 178.889 C 149.002 178.889,149.342 178.222,149.586 177.407 C 149.907 176.334,150.230 175.926,150.756 175.926 C 151.155 175.926,151.481 175.696,151.481 175.416 C 151.481 175.135,151.721 174.707,152.013 174.464 C 152.306 174.221,152.652 173.534,152.783 172.937 C 152.915 172.340,153.175 171.852,153.363 171.852 C 153.550 171.852,153.704 171.610,153.704 171.315 C 153.704 171.019,153.925 170.644,154.195 170.481 C 154.703 170.175,155.347 168.913,155.244 168.426 C 155.212 168.273,155.334 168.148,155.515 168.148 C 155.697 168.148,155.950 167.731,156.078 167.222 C 156.206 166.713,156.474 166.296,156.674 166.296 C 156.874 166.296,157.037 166.046,157.037 165.741 C 157.037 165.435,157.186 165.185,157.367 165.185 C 157.549 165.185,157.802 164.769,157.930 164.259 C 158.058 163.750,158.313 163.333,158.496 163.333 C 158.680 163.333,158.940 162.833,159.074 162.222 C 159.208 161.611,159.472 161.111,159.659 161.111 C 159.847 161.111,160.000 160.856,160.000 160.544 C 160.000 160.232,160.245 159.883,160.545 159.767 C 160.845 159.652,161.197 158.991,161.327 158.298 C 161.458 157.604,161.712 157.037,161.893 157.037 C 162.074 157.037,162.222 156.782,162.222 156.470 C 162.222 156.158,162.472 155.807,162.778 155.689 C 163.083 155.572,163.333 155.244,163.333 154.960 C 163.333 154.677,163.514 154.444,163.735 154.444 C 163.955 154.444,164.065 154.236,163.978 153.981 C 163.891 153.727,164.142 153.236,164.536 152.890 C 164.931 152.544,165.145 152.086,165.012 151.872 C 164.880 151.657,164.948 151.481,165.163 151.481 C 165.379 151.481,165.556 151.231,165.556 150.926 C 165.556 150.620,165.704 150.370,165.886 150.370 C 166.067 150.370,166.321 149.954,166.448 149.444 C 166.576 148.935,166.831 148.519,167.015 148.519 C 167.198 148.519,167.458 148.019,167.593 147.407 C 167.727 146.796,167.990 146.296,168.178 146.296 C 168.365 146.296,168.519 146.041,168.519 145.729 C 168.519 145.417,168.758 145.070,169.051 144.957 C 169.345 144.845,169.691 144.267,169.822 143.673 C 169.952 143.079,170.212 142.593,170.400 142.593 C 170.587 142.593,170.741 142.254,170.741 141.840 C 170.741 141.426,170.991 140.992,171.296 140.875 C 171.602 140.757,171.852 140.429,171.852 140.146 C 171.852 139.862,172.032 139.630,172.253 139.630 C 172.474 139.630,172.583 139.421,172.496 139.167 C 172.409 138.912,172.661 138.421,173.055 138.075 C 173.449 137.730,173.663 137.271,173.531 137.057 C 173.398 136.842,173.466 136.667,173.682 136.667 C 173.898 136.667,174.074 136.417,174.074 136.111 C 174.074 135.806,174.241 135.556,174.444 135.556 C 174.648 135.556,174.815 135.300,174.815 134.988 C 174.815 134.676,175.048 134.332,175.334 134.222 C 175.619 134.112,175.960 133.451,176.091 132.752 C 176.223 132.053,176.489 131.481,176.683 131.481 C 176.878 131.481,177.037 131.226,177.037 130.914 C 177.037 130.602,177.272 130.257,177.559 130.147 C 177.846 130.037,178.191 129.510,178.325 128.977 C 178.459 128.443,178.906 127.714,179.318 127.356 C 179.731 126.999,179.960 126.530,179.827 126.316 C 179.694 126.101,179.762 125.926,179.978 125.926 C 180.194 125.926,180.370 125.676,180.370 125.370 C 180.370 125.065,180.555 124.815,180.780 124.815 C 181.006 124.815,181.104 124.591,180.999 124.317 C 180.894 124.043,181.120 123.594,181.502 123.319 C 181.883 123.044,182.298 122.351,182.423 121.780 C 182.549 121.208,182.805 120.741,182.992 120.741 C 183.180 120.741,183.333 120.486,183.333 120.174 C 183.333 119.862,183.583 119.510,183.889 119.393 C 184.194 119.276,184.444 119.022,184.444 118.829 C 184.444 118.183,185.940 115.185,186.262 115.185 C 186.531 115.185,186.952 114.185,186.980 113.482 C 186.985 113.369,187.348 112.965,187.787 112.584 C 188.227 112.203,188.478 111.716,188.345 111.501 C 188.213 111.287,188.281 111.111,188.497 111.111 C 188.712 111.111,188.889 110.861,188.889 110.556 C 188.889 110.250,189.073 110.000,189.299 110.000 C 189.524 110.000,189.624 109.780,189.521 109.510 C 189.418 109.241,189.635 108.832,190.004 108.602 C 190.372 108.372,190.788 107.664,190.928 107.030 C 191.067 106.395,191.415 105.786,191.702 105.676 C 191.988 105.566,192.222 105.272,192.222 105.022 C 192.222 104.772,192.722 104.121,193.333 103.577 C 193.944 103.032,194.444 102.356,194.444 102.074 C 194.444 101.792,194.831 101.465,195.302 101.346 C 195.774 101.228,196.386 100.710,196.661 100.195 C 196.937 99.680,197.467 99.259,197.840 99.259 C 198.213 99.259,198.519 99.106,198.519 98.918 C 198.519 98.731,199.019 98.468,199.630 98.333 C 200.241 98.199,200.741 97.946,200.741 97.771 C 200.741 97.596,201.491 97.340,202.407 97.203 C 203.324 97.065,204.074 96.805,204.074 96.625 C 204.074 96.444,205.824 96.296,207.963 96.296 C 210.102 96.296,211.852 96.444,211.852 96.625 C 211.852 96.805,212.602 97.065,213.519 97.203 C 214.435 97.340,215.185 97.596,215.185 97.771 C 215.185 97.946,215.685 98.199,216.296 98.333 C 216.907 98.468,217.407 98.731,217.407 98.918 C 217.407 99.106,217.741 99.259,218.148 99.259 C 218.556 99.259,218.889 99.412,218.889 99.600 C 218.889 99.787,219.972 101.007,221.296 102.312 C 222.620 103.617,223.704 104.862,223.704 105.080 C 223.704 105.298,223.938 105.566,224.224 105.676 C 224.511 105.786,224.859 106.395,224.998 107.030 C 225.138 107.664,225.554 108.372,225.922 108.602 C 226.291 108.832,226.508 109.241,226.405 109.510 C 226.302 109.780,226.402 110.000,226.627 110.000 C 226.853 110.000,227.037 110.250,227.037 110.556 C 227.037 110.861,227.222 111.111,227.447 111.111 C 227.673 111.111,227.772 111.331,227.669 111.601 C 227.566 111.870,227.783 112.279,228.152 112.509 C 228.521 112.739,228.934 113.436,229.070 114.056 C 229.207 114.677,229.467 115.185,229.650 115.185 C 229.982 115.185,231.481 118.168,231.481 118.829 C 231.481 119.022,231.731 119.276,232.037 119.393 C 232.343 119.510,232.593 119.862,232.593 120.174 C 232.593 120.486,232.759 120.741,232.963 120.741 C 233.167 120.741,233.333 120.991,233.333 121.296 C 233.333 121.602,233.510 121.852,233.726 121.852 C 233.941 121.852,234.009 122.027,233.877 122.242 C 233.744 122.456,233.958 122.915,234.352 123.260 C 234.747 123.606,234.998 124.097,234.911 124.352 C 234.824 124.606,234.934 124.815,235.154 124.815 C 235.375 124.815,235.556 125.065,235.556 125.370 C 235.556 125.676,235.704 125.926,235.886 125.926 C 236.067 125.926,236.321 126.343,236.448 126.852 C 236.576 127.361,236.831 127.778,237.015 127.778 C 237.198 127.778,237.455 128.264,237.586 128.858 C 237.716 129.452,238.063 130.030,238.356 130.143 C 238.649 130.255,238.889 130.602,238.889 130.914 C 238.889 131.226,239.042 131.481,239.230 131.481 C 239.417 131.481,239.678 131.970,239.809 132.567 C 239.940 133.164,240.287 133.851,240.579 134.094 C 240.872 134.337,241.111 134.765,241.111 135.045 C 241.111 135.326,241.278 135.556,241.481 135.556 C 241.685 135.556,241.852 135.806,241.852 136.111 C 241.852 136.417,242.028 136.667,242.244 136.667 C 242.460 136.667,242.528 136.842,242.395 137.057 C 242.263 137.271,242.514 137.759,242.953 138.140 C 243.393 138.521,243.746 138.927,243.738 139.042 C 243.703 139.554,244.246 140.581,244.694 140.852 C 244.964 141.015,245.185 141.473,245.185 141.870 C 245.185 142.268,245.339 142.593,245.526 142.593 C 245.714 142.593,245.974 143.079,246.104 143.673 C 246.235 144.267,246.581 144.845,246.874 144.957 C 247.168 145.070,247.407 145.417,247.407 145.729 C 247.407 146.041,247.561 146.296,247.748 146.296 C 247.936 146.296,248.192 146.764,248.318 147.335 C 248.443 147.907,248.858 148.600,249.239 148.874 C 249.621 149.149,249.847 149.598,249.742 149.872 C 249.636 150.146,249.735 150.370,249.960 150.370 C 250.186 150.370,250.370 150.620,250.370 150.926 C 250.370 151.231,250.547 151.481,250.763 151.481 C 250.978 151.481,251.046 151.657,250.914 151.872 C 250.781 152.086,251.032 152.573,251.472 152.955 C 251.911 153.336,252.264 153.742,252.257 153.857 C 252.222 154.369,252.765 155.396,253.213 155.667 C 253.483 155.829,253.704 156.204,253.704 156.500 C 253.704 156.795,253.852 157.037,254.033 157.037 C 254.214 157.037,254.468 157.604,254.598 158.298 C 254.729 158.991,255.080 159.652,255.380 159.767 C 255.680 159.883,255.926 160.232,255.926 160.544 C 255.926 160.856,256.079 161.111,256.267 161.111 C 256.454 161.111,256.711 161.579,256.836 162.150 C 256.962 162.722,257.376 163.414,257.758 163.689 C 258.139 163.964,258.365 164.413,258.260 164.687 C 258.155 164.961,258.253 165.185,258.479 165.185 C 258.704 165.185,258.889 165.435,258.889 165.741 C 258.889 166.046,259.052 166.296,259.252 166.296 C 259.452 166.296,259.720 166.713,259.848 167.222 C 259.976 167.731,260.229 168.148,260.411 168.148 C 260.592 168.148,260.723 168.273,260.701 168.426 C 260.609 169.058,261.220 170.333,261.703 170.518 C 261.989 170.628,262.222 170.973,262.222 171.285 C 262.222 171.597,262.376 171.852,262.563 171.852 C 262.751 171.852,263.011 172.340,263.143 172.937 C 263.274 173.534,263.620 174.221,263.913 174.464 C 264.205 174.707,264.444 175.135,264.444 175.416 C 264.444 175.696,264.611 175.926,264.815 175.926 C 265.019 175.926,265.185 176.176,265.185 176.481 C 265.185 176.787,265.362 177.037,265.577 177.037 C 265.793 177.037,265.861 177.213,265.729 177.427 C 265.596 177.642,265.810 178.100,266.204 178.446 C 266.599 178.791,266.850 179.282,266.763 179.537 C 266.676 179.792,266.785 180.000,267.006 180.000 C 267.227 180.000,267.407 180.250,267.407 180.556 C 267.407 180.861,267.570 181.111,267.769 181.111 C 268.122 181.111,269.630 184.062,269.630 184.755 C 269.630 184.948,269.880 185.202,270.185 185.319 C 270.491 185.436,270.741 185.788,270.741 186.099 C 270.741 186.411,270.894 186.667,271.082 186.667 C 271.269 186.667,271.532 187.167,271.667 187.778 C 271.801 188.389,272.061 188.889,272.245 188.889 C 272.428 188.889,272.683 189.306,272.811 189.815 C 272.939 190.324,273.192 190.741,273.373 190.741 C 273.555 190.741,273.704 190.991,273.704 191.296 C 273.704 191.602,273.880 191.852,274.096 191.852 C 274.312 191.852,274.380 192.027,274.247 192.242 C 274.115 192.456,274.329 192.915,274.723 193.260 C 275.117 193.606,275.368 194.097,275.282 194.352 C 275.195 194.606,275.304 194.815,275.525 194.815 C 275.745 194.815,275.926 195.047,275.926 195.331 C 275.926 195.615,276.176 195.943,276.481 196.060 C 276.787 196.177,277.037 196.528,277.037 196.840 C 277.037 197.152,277.196 197.407,277.391 197.407 C 277.585 197.407,277.851 197.979,277.983 198.678 C 278.114 199.377,278.455 200.038,278.740 200.148 C 279.026 200.257,279.259 200.602,279.259 200.914 C 279.259 201.226,279.413 201.481,279.600 201.481 C 279.788 201.481,280.051 201.981,280.185 202.593 C 280.319 203.204,280.579 203.704,280.763 203.704 C 280.947 203.704,281.202 204.120,281.329 204.630 C 281.457 205.139,281.710 205.556,281.892 205.556 C 282.074 205.556,282.222 205.806,282.222 206.111 C 282.222 206.417,282.386 206.667,282.586 206.667 C 282.785 206.667,283.053 207.083,283.181 207.593 C 283.309 208.102,283.562 208.519,283.744 208.519 C 283.925 208.519,284.056 208.644,284.034 208.796 C 283.943 209.429,284.553 210.703,285.036 210.889 C 285.322 210.998,285.556 211.343,285.556 211.655 C 285.556 211.967,285.709 212.222,285.896 212.222 C 286.084 212.222,286.347 212.722,286.481 213.333 C 286.616 213.944,286.876 214.444,287.059 214.444 C 287.243 214.444,287.498 214.861,287.626 215.370 C 287.754 215.880,287.993 216.296,288.159 216.296 C 288.324 216.296,288.569 216.796,288.704 217.407 C 288.838 218.019,289.098 218.519,289.282 218.519 C 289.465 218.519,289.720 218.935,289.848 219.444 C 289.976 219.954,290.229 220.370,290.411 220.370 C 290.592 220.370,290.741 220.620,290.741 220.926 C 290.741 221.231,290.912 221.481,291.120 221.481 C 291.426 221.481,291.973 222.424,292.408 223.704 C 292.752 224.713,293.175 225.421,293.583 225.667 C 293.853 225.829,294.074 226.204,294.074 226.500 C 294.074 226.795,294.227 227.037,294.415 227.037 C 294.603 227.037,294.866 227.537,295.000 228.148 C 295.134 228.759,295.394 229.259,295.578 229.259 C 295.762 229.259,296.016 229.676,296.144 230.185 C 296.272 230.694,296.525 231.111,296.707 231.111 C 296.888 231.111,297.037 231.361,297.037 231.667 C 297.037 231.972,297.197 232.222,297.393 232.222 C 297.588 232.222,297.948 232.889,298.192 233.704 C 298.436 234.519,298.776 235.185,298.948 235.185 C 299.119 235.185,299.259 235.417,299.259 235.701 C 299.259 235.985,299.509 236.313,299.815 236.430 C 300.120 236.547,300.370 236.899,300.370 237.211 C 300.370 237.523,300.555 237.778,300.780 237.778 C 301.006 237.778,301.094 238.028,300.977 238.333 C 300.860 238.639,300.906 238.889,301.080 238.889 C 301.253 238.889,301.493 239.181,301.613 239.537 C 301.849 240.240,302.640 241.554,303.006 241.852 C 303.131 241.954,303.361 242.446,303.517 242.946 C 303.674 243.445,304.029 244.082,304.308 244.361 C 304.587 244.640,304.815 245.106,304.815 245.397 C 304.815 245.688,304.981 245.926,305.185 245.926 C 305.389 245.926,305.556 246.158,305.556 246.442 C 305.556 246.726,305.806 247.054,306.111 247.171 C 306.417 247.288,306.667 247.655,306.667 247.987 C 306.667 248.735,307.802 250.823,308.426 251.222 C 308.681 251.385,308.889 251.760,308.889 252.055 C 308.889 252.351,309.073 252.593,309.299 252.593 C 309.524 252.593,309.613 252.843,309.496 253.148 C 309.378 253.454,309.444 253.704,309.641 253.704 C 309.839 253.704,310.000 253.954,310.000 254.259 C 310.000 254.565,310.163 254.815,310.363 254.815 C 310.563 254.815,310.831 255.231,310.959 255.741 C 311.087 256.250,311.327 256.667,311.492 256.667 C 311.658 256.667,311.903 257.167,312.037 257.778 C 312.171 258.389,312.431 258.889,312.615 258.889 C 312.799 258.889,313.053 259.306,313.181 259.815 C 313.309 260.324,313.562 260.741,313.744 260.741 C 313.925 260.741,314.074 260.991,314.074 261.296 C 314.074 261.602,314.245 261.852,314.454 261.852 C 314.662 261.852,314.999 262.310,315.202 262.870 C 315.814 264.560,316.454 265.724,316.944 266.037 C 317.199 266.200,317.407 266.575,317.407 266.870 C 317.407 267.166,317.592 267.407,317.817 267.407 C 318.043 267.407,318.131 267.657,318.014 267.963 C 317.897 268.269,317.962 268.519,318.160 268.519 C 318.357 268.519,318.519 268.769,318.519 269.074 C 318.519 269.380,318.682 269.630,318.882 269.630 C 319.082 269.630,319.350 270.046,319.478 270.556 C 319.605 271.065,319.851 271.481,320.023 271.481 C 320.196 271.481,320.452 272.106,320.592 272.870 C 320.733 273.634,321.032 274.378,321.257 274.524 C 321.868 274.918,321.818 284.888,321.204 285.093 C 320.949 285.177,320.741 285.492,320.741 285.792 C 320.741 286.631,319.286 289.630,318.880 289.630 C 318.681 289.630,318.519 289.866,318.519 290.156 C 318.519 290.817,314.185 295.185,313.529 295.185 C 313.261 295.185,312.946 295.435,312.829 295.741 C 312.712 296.046,312.361 296.296,312.049 296.296 C 311.737 296.296,311.481 296.422,311.481 296.576 C 311.481 296.912,309.869 297.638,308.333 297.993 C 307.722 298.135,307.040 298.392,306.818 298.566 C 306.596 298.739,265.918 298.925,216.422 298.978 C 131.282 299.069,126.394 299.109,125.780 299.722 C 125.424 300.079,124.811 300.370,124.418 300.370 C 124.025 300.370,123.704 300.518,123.704 300.698 C 123.704 300.877,123.412 301.130,123.056 301.259 C 121.062 301.980,119.288 303.747,118.650 305.648 C 118.530 306.005,118.298 306.296,118.134 306.296 C 117.971 306.296,117.724 306.808,117.587 307.432 C 117.450 308.057,117.103 308.658,116.817 308.768 C 116.531 308.878,116.296 309.200,116.296 309.484 C 116.296 309.768,116.148 310.000,115.966 310.000 C 115.784 310.000,115.531 310.417,115.403 310.926 C 115.276 311.435,115.021 311.852,114.837 311.852 C 114.654 311.852,114.393 312.352,114.259 312.963 C 114.125 313.574,113.880 314.074,113.714 314.074 C 113.549 314.074,113.309 314.491,113.181 315.000 C 113.053 315.509,112.785 315.926,112.586 315.926 C 112.386 315.926,112.222 316.176,112.222 316.481 C 112.222 316.787,112.038 317.037,111.812 317.037 C 111.587 317.037,111.498 317.287,111.615 317.593 C 111.733 317.898,111.667 318.148,111.470 318.148 C 111.273 318.148,111.111 318.390,111.111 318.685 C 111.111 318.981,110.903 319.356,110.648 319.519 C 110.158 319.832,109.518 320.995,108.906 322.685 C 108.703 323.245,108.366 323.704,108.157 323.704 C 107.949 323.704,107.778 323.954,107.778 324.259 C 107.778 324.565,107.629 324.815,107.448 324.815 C 107.266 324.815,107.013 325.231,106.885 325.741 C 106.757 326.250,106.502 326.667,106.319 326.667 C 106.135 326.667,105.875 327.167,105.741 327.778 C 105.607 328.389,105.361 328.889,105.196 328.889 C 105.030 328.889,104.791 329.306,104.663 329.815 C 104.535 330.324,104.267 330.741,104.067 330.741 C 103.867 330.741,103.704 330.991,103.704 331.296 C 103.704 331.602,103.519 331.852,103.294 331.852 C 103.068 331.852,102.980 332.102,103.097 332.407 C 103.214 332.713,103.149 332.963,102.951 332.963 C 102.754 332.963,102.593 333.218,102.593 333.530 C 102.593 333.842,102.343 334.193,102.037 334.311 C 101.731 334.428,101.481 334.909,101.481 335.379 C 101.481 335.850,101.280 336.302,101.035 336.384 C 100.387 336.599,100.372 345.988,101.019 346.204 C 101.273 346.289,101.481 346.761,101.481 347.253 C 101.481 347.745,101.643 348.148,101.840 348.148 C 102.038 348.148,102.103 348.398,101.986 348.704 C 101.869 349.009,101.957 349.259,102.183 349.259 C 102.408 349.259,102.593 349.509,102.593 349.815 C 102.593 350.120,102.748 350.370,102.938 350.370 C 103.128 350.370,103.397 350.730,103.537 351.169 C 103.826 352.081,105.456 353.704,106.083 353.704 C 106.314 353.704,106.739 354.031,107.027 354.431 C 107.315 354.831,108.019 355.261,108.590 355.386 C 109.162 355.512,109.630 355.760,109.630 355.939 C 109.630 356.117,110.213 356.372,110.926 356.506 C 111.639 356.640,112.222 356.897,112.222 357.078 C 112.222 357.270,163.954 357.407,235.741 357.407 C 306.982 357.407,359.259 357.269,359.259 357.080 C 359.259 356.900,360.343 356.637,361.667 356.495 C 362.991 356.353,364.074 356.103,364.074 355.938 C 364.074 355.774,364.824 355.527,365.741 355.390 C 366.657 355.252,367.407 354.983,367.407 354.792 C 367.407 354.601,367.623 354.444,367.887 354.444 C 368.530 354.444,374.748 351.231,375.435 350.544 C 375.734 350.245,376.217 350.000,376.508 350.000 C 376.799 350.000,377.037 349.828,377.037 349.618 C 377.037 349.408,377.329 349.126,377.685 348.992 C 378.810 348.567,386.667 340.351,386.667 339.598 C 386.667 339.412,386.830 339.259,387.030 339.259 C 387.230 339.259,387.498 338.843,387.626 338.333 C 387.754 337.824,387.989 337.407,388.148 337.407 C 388.308 337.407,388.543 336.991,388.671 336.481 C 388.798 335.972,389.053 335.556,389.237 335.556 C 389.421 335.556,389.681 335.056,389.815 334.444 C 389.949 333.833,390.194 333.333,390.359 333.333 C 390.523 333.333,390.768 332.750,390.901 332.037 C 391.035 331.324,391.266 330.741,391.414 330.741 C 391.692 330.741,392.478 328.137,392.839 326.021 C 392.951 325.361,393.192 324.913,393.374 325.025 C 393.564 325.142,393.704 321.135,393.704 315.577 C 393.704 309.390,393.571 305.926,393.333 305.926 C 393.130 305.926,392.963 305.528,392.963 305.042 C 392.963 304.556,392.714 303.681,392.410 303.098 C 392.105 302.514,391.855 301.662,391.854 301.204 C 391.853 300.745,391.704 300.370,391.523 300.370 C 391.342 300.370,391.084 299.787,390.950 299.074 C 390.817 298.361,390.567 297.778,390.395 297.778 C 390.223 297.778,389.973 297.194,389.839 296.481 C 389.705 295.769,389.437 295.185,389.242 295.185 C 389.048 295.185,388.889 294.930,388.889 294.618 C 388.889 294.306,388.649 293.959,388.356 293.846 C 388.063 293.734,387.716 293.156,387.586 292.562 C 387.455 291.968,387.198 291.481,387.015 291.481 C 386.831 291.481,386.576 291.065,386.448 290.556 C 386.321 290.046,386.067 289.630,385.886 289.630 C 385.704 289.630,385.556 289.380,385.556 289.074 C 385.556 288.769,385.361 288.519,385.123 288.519 C 384.886 288.519,384.795 288.415,384.921 288.289 C 385.048 288.162,384.742 287.457,384.242 286.721 C 383.742 285.986,383.333 285.172,383.333 284.914 C 383.333 284.656,383.206 284.444,383.051 284.444 C 382.766 284.444,382.274 283.637,381.415 281.759 C 381.158 281.199,380.819 280.741,380.660 280.741 C 380.500 280.741,380.370 280.402,380.370 279.988 C 380.370 279.575,380.131 279.144,379.837 279.032 C 379.544 278.919,379.198 278.341,379.067 277.747 C 378.937 277.153,378.680 276.667,378.496 276.667 C 378.313 276.667,378.058 276.250,377.930 275.741 C 377.802 275.231,377.549 274.815,377.367 274.815 C 377.186 274.815,377.037 274.565,377.037 274.259 C 377.037 273.954,376.843 273.704,376.605 273.704 C 376.367 273.704,376.276 273.600,376.403 273.474 C 376.529 273.347,376.224 272.642,375.724 271.906 C 375.224 271.171,374.815 270.357,374.815 270.099 C 374.815 269.841,374.668 269.630,374.488 269.630 C 374.308 269.630,374.068 269.338,373.955 268.981 C 373.728 268.265,372.538 266.217,372.180 265.926 C 372.054 265.824,371.835 265.366,371.692 264.907 C 371.549 264.449,371.289 264.074,371.116 264.074 C 370.942 264.074,370.690 263.574,370.556 262.963 C 370.421 262.352,370.161 261.852,369.978 261.852 C 369.794 261.852,369.539 261.435,369.411 260.926 C 369.284 260.417,369.030 260.000,368.849 260.000 C 368.667 260.000,368.519 259.750,368.519 259.444 C 368.519 259.139,368.324 258.889,368.086 258.889 C 367.849 258.889,367.765 258.779,367.899 258.644 C 368.034 258.509,367.729 257.853,367.220 257.187 C 366.712 256.521,366.296 255.714,366.296 255.395 C 366.296 255.076,366.149 254.815,365.969 254.815 C 365.789 254.815,365.549 254.523,365.436 254.167 C 365.209 253.450,364.019 251.402,363.661 251.111 C 363.536 251.009,363.316 250.551,363.173 250.093 C 363.030 249.634,362.776 249.259,362.608 249.259 C 362.440 249.259,362.194 248.828,362.062 248.302 C 361.930 247.775,361.501 247.000,361.109 246.579 C 360.717 246.158,360.483 245.672,360.590 245.499 C 360.697 245.327,360.608 245.185,360.392 245.185 C 360.177 245.185,360.000 244.935,360.000 244.630 C 360.000 244.324,359.870 244.074,359.711 244.074 C 359.552 244.074,359.225 243.616,358.984 243.056 C 358.558 242.066,357.783 240.746,357.407 240.370 C 357.306 240.269,356.806 239.313,356.296 238.246 C 355.787 237.180,355.263 236.305,355.133 236.302 C 355.002 236.299,354.791 235.880,354.663 235.370 C 354.535 234.861,354.280 234.444,354.096 234.444 C 353.913 234.444,353.653 233.944,353.519 233.333 C 353.384 232.722,353.121 232.222,352.934 232.222 C 352.746 232.222,352.593 231.972,352.593 231.667 C 352.593 231.361,352.416 231.111,352.200 231.111 C 351.985 231.111,351.911 230.944,352.037 230.741 C 352.163 230.537,352.089 230.370,351.874 230.370 C 351.658 230.370,351.481 230.120,351.481 229.815 C 351.481 229.509,351.351 229.259,351.192 229.259 C 351.033 229.259,350.706 228.801,350.465 228.241 C 349.995 227.147,349.216 225.856,348.846 225.556 C 348.721 225.454,348.501 224.995,348.358 224.537 C 348.215 224.079,347.956 223.704,347.782 223.704 C 347.608 223.704,347.356 223.204,347.222 222.593 C 347.088 221.981,346.843 221.481,346.677 221.481 C 346.512 221.481,346.272 221.065,346.144 220.556 C 346.016 220.046,345.748 219.630,345.548 219.630 C 345.349 219.630,345.185 219.380,345.185 219.074 C 345.185 218.769,345.024 218.519,344.826 218.519 C 344.629 218.519,344.564 218.269,344.681 217.963 C 344.798 217.657,344.710 217.407,344.484 217.407 C 344.259 217.407,344.074 217.157,344.074 216.852 C 344.074 216.546,343.912 216.296,343.715 216.296 C 343.517 216.296,342.934 215.421,342.419 214.352 C 341.434 212.304,340.707 211.049,340.328 210.741 C 340.202 210.639,339.983 210.181,339.840 209.722 C 339.697 209.264,339.438 208.889,339.264 208.889 C 339.090 208.889,338.838 208.389,338.704 207.778 C 338.569 207.167,338.324 206.667,338.159 206.667 C 337.993 206.667,337.754 206.250,337.626 205.741 C 337.498 205.231,337.230 204.815,337.030 204.815 C 336.830 204.815,336.667 204.565,336.667 204.259 C 336.667 203.954,336.500 203.704,336.296 203.704 C 336.093 203.704,335.952 203.579,335.985 203.426 C 336.088 202.939,335.444 201.677,334.935 201.370 C 334.665 201.208,334.444 200.833,334.444 200.537 C 334.444 200.242,334.291 200.000,334.104 200.000 C 333.916 200.000,333.655 199.512,333.524 198.914 C 333.393 198.317,333.046 197.630,332.754 197.388 C 332.462 197.145,332.222 196.717,332.222 196.436 C 332.222 196.156,332.074 195.926,331.892 195.926 C 331.710 195.926,331.457 195.509,331.329 195.000 C 331.202 194.491,330.947 194.074,330.763 194.074 C 330.579 194.074,330.319 193.574,330.185 192.963 C 330.051 192.352,329.806 191.852,329.640 191.852 C 329.475 191.852,329.235 191.435,329.107 190.926 C 328.979 190.417,328.711 190.000,328.511 190.000 C 328.312 190.000,328.148 189.750,328.148 189.444 C 328.148 189.139,327.981 188.889,327.778 188.889 C 327.574 188.889,327.434 188.764,327.466 188.611 C 327.569 188.124,326.925 186.862,326.417 186.556 C 326.147 186.393,325.926 186.018,325.926 185.722 C 325.926 185.427,325.801 185.182,325.648 185.177 C 325.495 185.173,324.954 184.260,324.444 183.148 C 323.935 182.036,323.412 181.123,323.281 181.119 C 323.150 181.115,322.939 180.694,322.811 180.185 C 322.683 179.676,322.428 179.259,322.245 179.259 C 322.061 179.259,321.801 178.759,321.667 178.148 C 321.532 177.537,321.269 177.037,321.082 177.037 C 320.894 177.037,320.741 176.787,320.741 176.481 C 320.741 176.176,320.546 175.926,320.309 175.926 C 320.071 175.926,319.978 175.825,320.101 175.701 C 320.225 175.578,320.011 175.139,319.626 174.725 C 319.241 174.312,318.824 173.510,318.700 172.944 C 318.575 172.377,318.233 171.822,317.940 171.709 C 317.647 171.597,317.407 171.249,317.407 170.938 C 317.407 170.626,317.282 170.367,317.130 170.363 C 316.977 170.358,316.435 169.445,315.926 168.333 C 315.417 167.221,314.893 166.308,314.762 166.304 C 314.632 166.300,314.420 165.880,314.292 165.370 C 314.165 164.861,313.910 164.444,313.726 164.444 C 313.542 164.444,313.282 163.944,313.148 163.333 C 313.014 162.722,312.751 162.222,312.563 162.222 C 312.376 162.222,312.222 161.972,312.222 161.667 C 312.222 161.361,312.067 161.111,311.878 161.111 C 311.688 161.111,311.147 160.319,310.674 159.352 C 310.202 158.384,309.606 157.372,309.352 157.103 C 309.097 156.834,308.889 156.376,308.889 156.085 C 308.889 155.794,308.764 155.552,308.611 155.548 C 308.458 155.544,307.917 154.630,307.407 153.519 C 306.898 152.407,306.356 151.493,306.204 151.489 C 306.051 151.485,305.926 151.243,305.926 150.952 C 305.926 150.661,305.718 150.200,305.463 149.928 C 305.208 149.656,304.668 148.769,304.263 147.957 C 303.858 147.146,303.316 146.348,303.059 146.185 C 302.803 146.022,302.593 145.647,302.593 145.352 C 302.593 145.057,302.439 144.815,302.252 144.815 C 302.064 144.815,301.801 144.315,301.667 143.704 C 301.532 143.093,301.272 142.593,301.089 142.593 C 300.905 142.593,300.650 142.176,300.522 141.667 C 300.395 141.157,300.183 140.737,300.052 140.733 C 299.922 140.729,299.398 139.816,298.889 138.704 C 298.380 137.592,297.838 136.679,297.685 136.674 C 297.532 136.670,297.407 136.442,297.407 136.168 C 297.407 135.893,297.074 135.285,296.667 134.815 C 296.259 134.345,295.926 133.736,295.926 133.462 C 295.926 133.187,295.759 132.963,295.556 132.963 C 295.352 132.963,295.185 132.647,295.185 132.262 C 295.185 131.876,294.935 131.465,294.630 131.348 C 294.324 131.230,294.074 130.879,294.074 130.567 C 294.074 130.255,293.921 130.000,293.733 130.000 C 293.546 130.000,293.282 129.500,293.148 128.889 C 293.014 128.278,292.754 127.778,292.570 127.778 C 292.387 127.778,292.132 127.361,292.004 126.852 C 291.876 126.343,291.665 125.922,291.534 125.918 C 291.403 125.914,290.880 125.001,290.370 123.889 C 289.861 122.777,289.319 121.864,289.167 121.860 C 289.014 121.855,288.889 121.627,288.889 121.353 C 288.889 121.079,288.556 120.470,288.148 120.000 C 287.741 119.530,287.407 118.921,287.407 118.647 C 287.407 118.373,287.260 118.148,287.080 118.148 C 286.900 118.148,286.655 117.856,286.535 117.500 C 286.299 116.797,285.509 115.483,285.143 115.185 C 285.017 115.083,284.787 114.591,284.631 114.091 C 284.475 113.592,284.119 112.955,283.840 112.676 C 283.561 112.397,283.333 111.931,283.333 111.640 C 283.333 111.349,283.203 111.111,283.044 111.111 C 282.885 111.111,282.550 110.653,282.299 110.093 C 282.049 109.532,281.268 108.074,280.564 106.852 C 279.860 105.630,279.176 104.338,279.044 103.981 C 278.911 103.625,278.655 103.333,278.475 103.333 C 278.295 103.333,278.148 103.083,278.148 102.778 C 278.148 102.472,277.985 102.222,277.785 102.222 C 277.585 102.222,277.317 101.806,277.189 101.296 C 277.061 100.787,276.821 100.370,276.656 100.370 C 276.491 100.370,276.245 99.870,276.111 99.259 C 275.977 98.648,275.717 98.148,275.533 98.148 C 275.350 98.148,275.095 97.731,274.967 97.222 C 274.839 96.713,274.599 96.296,274.434 96.296 C 274.268 96.296,274.026 95.810,273.896 95.216 C 273.765 94.622,273.419 94.044,273.126 93.931 C 272.832 93.819,272.593 93.472,272.593 93.160 C 272.593 92.848,272.444 92.593,272.262 92.593 C 272.081 92.593,271.822 92.153,271.687 91.616 C 271.552 91.079,271.034 90.105,270.536 89.451 C 270.037 88.798,269.630 88.071,269.630 87.835 C 269.630 87.600,269.466 87.407,269.266 87.407 C 269.066 87.407,268.798 86.991,268.671 86.481 C 268.543 85.972,268.303 85.556,268.137 85.556 C 267.972 85.556,267.727 85.056,267.593 84.444 C 267.458 83.833,267.198 83.333,267.015 83.333 C 266.831 83.333,266.576 82.917,266.448 82.407 C 266.321 81.898,266.081 81.481,265.915 81.481 C 265.750 81.481,265.508 80.995,265.377 80.401 C 265.247 79.807,264.900 79.229,264.607 79.117 C 264.314 79.004,264.074 78.657,264.074 78.345 C 264.074 78.033,263.921 77.778,263.733 77.778 C 263.546 77.778,263.282 77.276,263.147 76.663 C 263.013 76.051,262.750 75.644,262.562 75.759 C 262.375 75.875,262.222 75.710,262.222 75.392 C 262.222 75.075,262.056 74.815,261.852 74.815 C 261.648 74.815,261.508 74.690,261.540 74.537 C 261.629 74.117,261.029 72.840,260.484 72.288 C 260.218 72.019,260.000 71.561,260.000 71.270 C 260.000 70.979,259.847 70.741,259.659 70.741 C 259.472 70.741,259.211 70.255,259.081 69.661 C 258.950 69.066,258.604 68.488,258.311 68.376 C 258.018 68.263,257.778 67.916,257.778 67.604 C 257.778 67.292,257.611 67.037,257.407 67.037 C 257.204 67.037,257.037 66.726,257.037 66.346 C 257.037 65.966,256.704 65.232,256.296 64.714 C 255.889 64.196,255.556 63.590,255.556 63.368 C 255.556 63.145,255.407 62.963,255.225 62.963 C 255.044 62.963,254.791 62.546,254.663 62.037 C 254.535 61.528,254.267 61.111,254.067 61.111 C 253.867 61.111,253.704 60.861,253.704 60.556 C 253.704 60.250,253.537 60.000,253.333 60.000 C 253.130 60.000,252.989 59.875,253.022 59.722 C 253.111 59.302,252.511 58.026,251.965 57.474 C 251.699 57.204,251.481 56.746,251.481 56.455 C 251.481 56.164,251.328 55.926,251.141 55.926 C 250.953 55.926,250.693 55.440,250.562 54.846 C 250.432 54.252,250.085 53.674,249.792 53.561 C 249.499 53.449,249.259 53.101,249.259 52.789 C 249.259 52.477,249.106 52.222,248.918 52.222 C 248.731 52.222,248.470 51.734,248.339 51.137 C 248.208 50.540,247.861 49.853,247.569 49.610 C 247.276 49.367,247.037 48.939,247.037 48.658 C 247.037 48.378,246.870 48.148,246.667 48.148 C 246.463 48.148,246.296 47.898,246.296 47.593 C 246.296 47.287,246.120 47.037,245.904 47.037 C 245.688 47.037,245.615 46.870,245.741 46.667 C 245.867 46.463,245.793 46.296,245.577 46.296 C 245.362 46.296,245.185 46.046,245.185 45.741 C 245.185 45.435,245.032 45.185,244.844 45.185 C 244.657 45.185,244.397 44.699,244.266 44.105 C 244.136 43.511,243.789 42.933,243.496 42.820 C 243.203 42.708,242.963 42.295,242.963 41.903 C 242.963 41.511,242.713 41.094,242.407 40.977 C 242.102 40.860,241.852 40.509,241.852 40.197 C 241.852 39.885,241.711 39.630,241.538 39.630 C 241.366 39.630,241.074 39.304,240.890 38.907 C 240.374 37.792,233.716 31.111,233.120 31.111 C 232.830 31.111,232.593 30.978,232.593 30.815 C 232.593 30.652,231.930 30.111,231.121 29.611 C 230.312 29.112,229.645 28.592,229.640 28.455 C 229.634 28.319,229.130 28.097,228.519 27.963 C 227.907 27.829,227.406 27.607,227.404 27.471 C 227.402 27.334,226.652 26.893,225.737 26.491 C 224.822 26.089,224.074 25.645,224.074 25.505 C 224.074 25.365,223.407 25.138,222.593 25.000 C 221.778 24.862,221.111 24.610,221.111 24.439 C 221.111 24.267,220.194 24.013,219.074 23.873 C 217.954 23.733,217.037 23.471,217.037 23.291 C 217.037 23.109,212.744 22.963,207.407 22.963 C 202.071 22.963,197.778 23.109,197.778 23.291 M204.537 163.208 C 203.875 163.303,203.333 163.536,203.333 163.727 C 203.333 163.918,202.911 164.074,202.396 164.074 C 201.880 164.074,201.362 164.324,201.245 164.630 C 201.128 164.935,200.850 165.185,200.629 165.185 C 200.045 165.185,198.148 167.087,198.148 167.674 C 198.148 167.947,197.898 168.267,197.593 168.385 C 197.287 168.502,197.037 168.830,197.037 169.114 C 197.037 169.397,196.870 169.630,196.667 169.630 C 196.463 169.630,196.296 169.868,196.296 170.159 C 196.296 170.450,196.079 170.908,195.813 171.177 C 195.267 171.729,194.667 173.006,194.756 173.426 C 194.788 173.579,194.666 173.704,194.485 173.704 C 194.303 173.704,194.050 174.120,193.922 174.630 C 193.794 175.139,193.526 175.556,193.326 175.556 C 193.126 175.556,192.963 175.806,192.963 176.111 C 192.963 176.417,192.810 176.667,192.622 176.667 C 192.435 176.667,192.171 177.166,192.038 177.776 C 191.904 178.385,191.590 179.010,191.340 179.164 C 191.090 179.318,190.595 180.069,190.240 180.833 C 189.885 181.597,189.449 182.222,189.271 182.222 C 189.093 182.222,188.838 182.722,188.704 183.333 C 188.569 183.944,188.324 184.444,188.159 184.444 C 187.993 184.444,187.754 184.861,187.626 185.370 C 187.498 185.880,187.230 186.296,187.030 186.296 C 186.830 186.296,186.667 186.546,186.667 186.852 C 186.667 187.157,186.482 187.407,186.257 187.407 C 186.031 187.407,185.943 187.657,186.060 187.963 C 186.177 188.269,186.151 188.519,186.002 188.519 C 185.729 188.519,185.055 189.633,184.603 190.833 C 184.468 191.190,184.211 191.481,184.031 191.481 C 183.851 191.481,183.704 191.737,183.704 192.049 C 183.704 192.361,183.473 192.704,183.192 192.812 C 182.910 192.920,182.576 193.657,182.450 194.450 C 182.323 195.242,182.011 196.024,181.757 196.186 C 181.269 196.498,180.628 197.664,180.017 199.352 C 179.814 199.912,179.477 200.370,179.268 200.370 C 179.060 200.370,178.889 200.620,178.889 200.926 C 178.889 201.231,178.742 201.481,178.562 201.481 C 178.272 201.481,177.962 202.191,177.861 203.084 C 177.842 203.252,177.467 203.701,177.027 204.082 C 176.588 204.464,176.337 204.951,176.469 205.166 C 176.602 205.380,176.553 205.556,176.361 205.556 C 176.169 205.556,175.914 205.847,175.795 206.204 C 175.549 206.936,174.755 208.238,174.381 208.522 C 174.245 208.626,174.015 209.181,173.871 209.756 C 173.726 210.330,173.380 210.888,173.100 210.995 C 172.821 211.103,172.593 211.423,172.593 211.706 C 172.593 211.990,172.433 212.222,172.239 212.222 C 172.045 212.222,171.773 212.819,171.637 213.548 C 171.500 214.277,171.159 214.962,170.879 215.069 C 170.599 215.177,170.370 215.497,170.370 215.780 C 170.370 216.064,170.204 216.296,170.000 216.296 C 169.796 216.296,169.630 216.546,169.630 216.852 C 169.630 217.157,169.449 217.407,169.228 217.407 C 169.008 217.407,168.898 217.616,168.985 217.870 C 169.072 218.125,168.821 218.616,168.427 218.962 C 168.032 219.307,167.818 219.766,167.951 219.980 C 168.083 220.195,168.015 220.370,167.800 220.370 C 167.584 220.370,167.407 220.626,167.407 220.938 C 167.407 221.249,167.157 221.601,166.852 221.718 C 166.546 221.835,166.296 222.247,166.296 222.632 C 166.296 223.018,166.143 223.333,165.955 223.333 C 165.768 223.333,165.502 223.845,165.365 224.469 C 165.228 225.094,164.881 225.696,164.595 225.805 C 164.308 225.915,164.074 226.237,164.074 226.521 C 164.074 226.805,163.921 227.037,163.733 227.037 C 163.546 227.037,163.286 227.520,163.157 228.110 C 163.027 228.700,162.601 229.472,162.210 229.826 C 161.819 230.180,161.588 230.614,161.697 230.790 C 161.806 230.967,161.719 231.111,161.503 231.111 C 161.288 231.111,161.111 231.361,161.111 231.667 C 161.111 231.972,160.931 232.222,160.710 232.222 C 160.489 232.222,160.380 232.431,160.467 232.685 C 160.554 232.940,160.302 233.431,159.908 233.777 C 159.514 234.122,159.300 234.581,159.432 234.795 C 159.565 235.010,159.497 235.185,159.281 235.185 C 159.065 235.185,158.889 235.435,158.889 235.741 C 158.889 236.046,158.722 236.296,158.519 236.296 C 158.315 236.296,158.148 236.552,158.148 236.863 C 158.148 237.175,157.902 237.525,157.600 237.641 C 157.274 237.766,156.956 238.583,156.812 239.666 C 156.680 240.665,156.426 241.481,156.249 241.481 C 156.071 241.481,155.926 242.315,155.926 243.333 C 155.926 244.352,156.073 245.185,156.254 245.185 C 156.434 245.185,156.696 246.102,156.836 247.222 C 156.976 248.343,157.242 249.259,157.427 249.259 C 157.612 249.259,157.867 249.670,157.993 250.172 C 158.119 250.674,158.539 251.185,158.926 251.308 C 159.313 251.431,159.630 251.691,159.630 251.886 C 159.630 252.081,160.005 252.403,160.463 252.601 C 160.921 252.799,161.546 253.109,161.852 253.290 C 164.167 254.658,163.216 254.630,207.407 254.630 C 251.599 254.630,250.648 254.658,252.963 253.290 C 253.269 253.109,253.894 252.799,254.352 252.601 C 254.810 252.403,255.185 252.081,255.185 251.886 C 255.185 251.691,255.502 251.431,255.889 251.308 C 256.276 251.185,256.696 250.674,256.822 250.172 C 256.948 249.670,257.203 249.259,257.388 249.259 C 257.573 249.259,257.839 248.343,257.979 247.222 C 258.119 246.102,258.381 245.185,258.561 245.185 C 258.741 245.185,258.889 244.352,258.889 243.333 C 258.889 242.315,258.722 241.481,258.519 241.481 C 258.315 241.481,258.142 241.023,258.136 240.463 C 258.129 239.903,257.801 238.778,257.407 237.963 C 257.014 237.148,256.686 236.273,256.679 236.019 C 256.672 235.764,256.500 235.556,256.296 235.556 C 256.093 235.556,255.926 235.306,255.926 235.000 C 255.926 234.694,255.749 234.444,255.534 234.444 C 255.318 234.444,255.253 234.264,255.389 234.044 C 255.525 233.824,255.282 233.396,254.849 233.093 C 254.416 232.790,254.158 232.387,254.275 232.197 C 254.392 232.007,254.331 231.852,254.139 231.852 C 253.947 231.852,253.692 231.560,253.572 231.204 C 253.336 230.500,252.546 229.186,252.180 228.889 C 252.054 228.787,251.824 228.295,251.668 227.795 C 251.512 227.295,251.156 226.658,250.877 226.380 C 250.598 226.101,250.370 225.635,250.370 225.344 C 250.370 225.053,250.217 224.815,250.029 224.815 C 249.842 224.815,249.579 224.315,249.444 223.704 C 249.310 223.093,249.085 222.593,248.944 222.593 C 248.802 222.593,248.359 221.968,247.958 221.204 C 247.557 220.440,247.020 219.682,246.763 219.519 C 246.506 219.356,246.296 218.981,246.296 218.685 C 246.296 218.390,246.135 218.148,245.938 218.148 C 245.740 218.148,245.675 217.898,245.792 217.593 C 245.909 217.287,245.821 217.037,245.595 217.037 C 245.370 217.037,245.185 216.787,245.185 216.481 C 245.185 216.176,245.022 215.926,244.822 215.926 C 244.622 215.926,244.354 215.509,244.226 215.000 C 244.098 214.491,243.858 214.074,243.693 214.074 C 243.528 214.074,243.282 213.574,243.148 212.963 C 243.014 212.352,242.754 211.852,242.570 211.852 C 242.387 211.852,242.132 211.435,242.004 210.926 C 241.876 210.417,241.636 210.000,241.471 210.000 C 241.305 210.000,241.060 209.500,240.926 208.889 C 240.792 208.278,240.536 207.778,240.358 207.778 C 240.180 207.778,239.744 207.153,239.389 206.389 C 239.034 205.625,238.526 204.867,238.261 204.704 C 237.995 204.541,237.778 204.166,237.778 203.870 C 237.778 203.575,237.616 203.333,237.419 203.333 C 237.222 203.333,237.156 203.083,237.273 202.778 C 237.391 202.472,237.302 202.222,237.077 202.222 C 236.851 202.222,236.667 201.972,236.667 201.667 C 236.667 201.361,236.503 201.111,236.303 201.111 C 236.104 201.111,235.835 200.694,235.708 200.185 C 235.580 199.676,235.340 199.259,235.174 199.259 C 235.009 199.259,234.764 198.759,234.630 198.148 C 234.495 197.537,234.235 197.037,234.052 197.037 C 233.868 197.037,233.613 196.620,233.485 196.111 C 233.358 195.602,233.104 195.185,232.923 195.185 C 232.741 195.185,232.593 194.953,232.593 194.669 C 232.593 194.385,232.364 194.066,232.085 193.958 C 231.805 193.851,231.459 193.293,231.315 192.719 C 231.170 192.144,230.941 191.589,230.804 191.485 C 230.430 191.201,229.637 189.899,229.390 189.167 C 229.271 188.810,229.031 188.519,228.857 188.519 C 228.684 188.519,228.638 188.269,228.755 187.963 C 228.872 187.657,228.784 187.407,228.558 187.407 C 228.333 187.407,228.148 187.157,228.148 186.852 C 228.148 186.546,227.985 186.296,227.785 186.296 C 227.585 186.296,227.317 185.880,227.189 185.370 C 227.061 184.861,226.821 184.444,226.656 184.444 C 226.491 184.444,226.245 183.944,226.111 183.333 C 225.977 182.722,225.721 182.222,225.544 182.222 C 225.366 182.222,224.929 181.597,224.574 180.833 C 224.219 180.069,223.725 179.318,223.475 179.164 C 223.225 179.010,222.911 178.385,222.777 177.776 C 222.643 177.166,222.380 176.667,222.193 176.667 C 222.005 176.667,221.852 176.417,221.852 176.111 C 221.852 175.806,221.688 175.556,221.489 175.556 C 221.289 175.556,221.021 175.139,220.893 174.630 C 220.765 174.120,220.512 173.704,220.330 173.704 C 220.149 173.704,220.026 173.579,220.059 173.426 C 220.148 173.006,219.548 171.729,219.002 171.177 C 218.736 170.908,218.519 170.450,218.519 170.159 C 218.519 169.868,218.352 169.630,218.148 169.630 C 217.944 169.630,217.778 169.397,217.778 169.114 C 217.778 168.830,217.528 168.502,217.222 168.385 C 216.917 168.267,216.667 167.967,216.667 167.717 C 216.667 167.121,214.803 165.185,214.230 165.185 C 213.984 165.185,213.687 164.935,213.570 164.630 C 213.453 164.324,212.949 164.074,212.450 164.074 C 211.951 164.074,211.488 163.909,211.420 163.707 C 211.282 163.295,206.398 162.941,204.537 163.208 " stroke="none" fill="#000000" fill-rule="evenodd"></path></g></svg>